<?xml version="1.0" standalone="no"?>
<!DOCTYPE svg PUBLIC "-//W3C//DTD SVG 20010904//EN"
 "http://www.w3.org/TR/2001/REC-SVG-20010904/DTD/svg10.dtd">
<svg version="1.0" xmlns="http://www.w3.org/2000/svg"
 width="91.000000pt" height="91.000000pt" viewBox="0 0 91.000000 91.000000"
 preserveAspectRatio="xMidYMid meet">
<metadata>
Created by potrace 1.11, written by Peter Selinger 2001-2013
</metadata>
<g transform="translate(0.000000,91.000000) scale(0.100000,-0.100000)"
fill="#000000" stroke="none">
<path d="M334 891 c-198 -67 -318 -242 -310 -450 5 -111 17 -149 72 -237 86
-137 215 -205 377 -199 78 2 97 7 160 38 110 55 188 141 230 255 30 82 30 245
-2 321 -47 116 -120 194 -230 248 -65 31 -85 36 -160 39 -61 2 -101 -3 -137
-15z m257 -396 c68 -104 136 -208 151 -229 16 -22 27 -41 25 -43 -2 -2 -28 8
-58 22 -30 13 -77 30 -104 36 -50 11 -52 13 -99 95 -26 46 -49 84 -51 84 -2 0
-25 -38 -51 -84 -46 -81 -49 -84 -98 -96 -27 -7 -74 -24 -104 -37 -30 -13 -56
-23 -57 -21 -1 2 35 62 82 133 46 72 116 179 154 239 39 59 74 104 78 100 4
-5 63 -94 132 -199z"/>
</g>
</svg>
